<svg width="400" height="400" viewBox="0 0 400 400" fill="none" xmlns="http://www.w3.org/2000/svg">
<g clip-path="url(#clip0_1_2)">
<rect width="400" height="400" fill="black"/>
<g clip-path="url(#clip1_1_2)">
<path d="M290.745 -2.09787C290.745 -2.09787 263.971 8.37687 255.673 23.059C255.673 23.059 246.281 -7.86015 239.522 -28.5448C239.522 -28.5448 227.634 -13.2596 219.379 3.38987C219.379 3.38987 210.799 -13.3068 202.208 -25.2886C202.208 -25.2886 184.299 40.6742 182.04 54.3909C182.04 54.3909 233.647 73.8567 277.086 81.0121C277.086 81.0121 290.331 33.8829 290.775 -2.09295L290.745 -2.09787Z" fill="white"/>
<path d="M148.481 287.118C145.502 285.31 142.861 286.1 141.257 288.776C139.652 291.452 140.189 294.144 143.172 295.922C146.156 297.699 148.792 296.939 150.397 294.263C151.996 291.617 151.465 288.895 148.481 287.118Z" fill="white"/>
<path d="M143.562 251.728C143.978 248.642 142.424 246.365 138.981 245.89C135.538 245.414 133.41 247.177 132.994 250.263C132.577 253.349 134.136 255.597 137.574 256.102C141.018 256.577 143.145 254.814 143.562 251.728Z" fill="white"/>
<path d="M194.576 253.975C188.524 252.979 184.69 255.992 183.796 261.419C182.902 266.846 185.567 270.929 191.619 271.926C197.672 272.923 201.476 269.905 202.37 264.478C203.264 259.051 200.599 254.968 194.576 253.975Z" fill="white"/>
<path d="M159.67 221.794C163.147 221.876 165.041 219.861 165.125 216.75C165.179 213.635 163.377 211.562 159.894 211.509C156.417 211.426 154.523 213.442 154.469 216.557C154.386 219.667 156.218 221.746 159.7 221.799L159.67 221.794Z" fill="white"/>
<path d="M238.587 234.793C241.907 235.83 244.279 234.444 245.222 231.506C246.17 228.538 244.988 226.047 241.703 224.985C238.383 223.948 236.011 225.334 235.067 228.272C234.119 231.239 235.301 233.731 238.587 234.793Z" fill="white"/>
<path d="M250.424 264.247C247.01 263.593 244.808 265.251 244.212 268.308C243.647 271.369 245.067 273.717 248.481 274.371C251.895 275.025 254.097 273.367 254.692 270.31C255.288 267.253 253.838 264.901 250.424 264.247Z" fill="white"/>
<path d="M228.232 300.255C224.836 300.981 223.459 303.389 224.126 306.408C224.787 309.457 227.035 311.053 230.437 310.296C233.833 309.569 235.209 307.162 234.543 304.143C233.882 301.093 231.633 299.498 228.232 300.255Z" fill="white"/>
<path d="M420.728 224.949L436.102 208.768C435.016 202.157 427.47 198.893 427.47 198.893L401.215 219.224C387.375 226.469 385.739 239.186 385.739 239.186C386.471 240.317 387.234 241.453 388.021 242.624C383.517 251.745 377.999 260.147 371.157 267.105C364.266 274.179 355.941 279.729 346.414 283.091C342.284 284.555 337.895 285.547 333.411 286.186C347.166 225.175 356.305 147.201 332.047 124.736C292.921 88.4291 161.092 54.2174 112.387 76.0568C81.5705 89.878 61.3578 172.429 52.3237 237.312C46.2141 234.805 40.5454 231.666 35.5856 227.755C27.6411 221.515 21.5661 213.593 17.2775 204.678C13.0588 195.897 10.4974 186.165 9.15726 176.082C10.2734 175.255 11.3597 174.423 12.4211 173.556C12.4211 173.556 14.9509 160.987 4.16555 149.685L-14.1809 122.007C-14.1809 122.007 -22.3461 122.684 -25.5241 128.592L-16.1527 148.85C-16.1527 148.85 -31.6593 155.055 -38.8741 167.251C-38.8741 167.251 -37.674 179.485 -22.0828 194.703C-22.0828 194.703 -21.4525 194.409 -20.3806 193.85C-19.2678 196.575 -18.0606 199.286 -16.7591 201.981C-13.8321 208.007 -10.3539 213.848 -6.32512 219.32C-2.29631 224.792 2.31793 229.871 7.45762 234.362C12.5973 238.854 18.2425 242.693 24.1644 245.782C30.0863 248.871 36.3099 251.244 42.5918 252.891C45.0568 253.542 47.5464 254.044 50.0458 254.486C46.639 284.277 45.8933 307.952 47.8841 315.386C49.4398 321.186 57.8947 326.744 69.7663 331.824C60.9541 339.775 50.2882 352.658 47.9809 370.012C42.7419 373.559 38.6838 379.047 37.4706 386.412C33.3151 411.639 77.2969 422.559 84.2778 394.122C88.1873 378.197 80.8732 369.059 70.9331 366.197C70.9883 355.823 72.3508 343.276 77.6156 334.924C89.2175 339.224 102.91 343.103 116.413 346.46C110.584 358.792 104.06 371.072 106.172 384.834C106.695 388.351 110.022 390.461 112.742 389.378C115.492 388.299 116.698 384.884 116.156 381.854C114.072 369.964 119.422 359.238 124.275 348.368C130.467 349.816 136.495 351.146 142.15 352.323C135.908 366.792 126.61 380.851 129.049 396.903C129.572 400.42 132.899 402.53 135.62 401.446C138.37 400.368 139.575 396.952 139.033 393.923C136.518 379.634 144.711 367.079 149.942 353.913C160.794 356.068 169.51 357.626 174.012 358.368C173.459 373.805 174.353 389.573 165.207 402.339C163.052 405.383 162.578 409.746 164.992 412.38C167.406 415.013 172.154 414.448 174.582 410.866C184.722 395.967 183.282 377.751 183.553 360.123C188.512 361.062 196.184 362.449 205.337 363.956C206.286 377.344 209.242 391.001 202.668 403.027C201.212 405.727 201.259 409.349 203.517 411.253C205.746 413.151 209.57 412.249 211.198 409.057C218.251 395.425 214.8 380.125 213.337 365.213C221.436 366.425 230.3 367.64 239.293 368.631C240.387 380.021 241.695 391.416 236.096 401.611C234.64 404.312 234.692 407.904 236.945 409.837C239.204 411.741 242.998 410.834 244.626 407.641C250.783 395.731 248.916 382.529 247.366 369.44C259.191 370.53 270.88 371.139 280.948 370.807C284.67 379.077 282.154 391.189 279.047 400.57C270.418 400.159 262.231 405.426 261.064 419.017C258.988 443.33 296.573 446.428 300.031 425.436C301.042 419.293 299.329 413.896 296.132 409.694C299.33 393.436 292.463 378.798 287.162 370.452C298.059 369.552 306.285 367.201 309.337 362.619C313.721 356.083 321.527 333.417 328.884 304.369C329.759 304.452 330.598 304.559 331.448 304.607C337.926 305.062 344.577 304.841 351.182 303.785C357.811 302.763 364.395 300.907 370.669 298.327C376.978 295.721 382.977 292.391 388.548 288.5C394.119 284.609 399.257 280.188 403.992 275.424C406.085 273.318 408.102 271.109 410.03 268.884C410.866 269.757 411.369 270.238 411.369 270.238C431.022 260.795 436.078 249.622 436.078 249.622C433.161 235.726 420.459 224.905 420.459 224.905L420.728 224.949ZM-2.02581 177.976L-2.51687 178.355L-3.26781 177.894C-4.04365 177.399 -4.81948 176.903 -5.56059 176.383C-6.3017 175.863 -7.07263 175.338 -7.80883 174.788C-8.54994 174.267 -9.28614 173.717 -9.98761 173.142C-10.5299 172.716 -11.0721 172.29 -11.5796 171.839L-28.005 180.833L-28.1246 180.63L-19.5025 174.577C-20.0549 174.026 -20.5428 173.456 -20.991 172.831C-21.6633 171.893 -22.2364 170.91 -22.7102 169.883C-23.184 168.855 -23.5586 167.783 -23.8139 166.73C-24.0643 165.648 -24.2848 164.57 -24.3167 163.462L-24.0684 163.442C-23.838 164.46 -23.4585 165.502 -23.0345 166.46C-22.5807 167.423 -22.0921 168.361 -21.4945 169.195C-20.9018 170.058 -20.2347 170.842 -19.4932 171.546C-18.8563 172.141 -18.1797 172.681 -17.4586 173.137L-13.2666 170.183L-12.3346 169.172L-10.2079 166.858L-14.8441 158.009L-14.6357 157.859L-8.31415 164.842L-0.198783 156.102L-8.90609 169.737C-8.5529 170.01 -8.22952 170.277 -7.87632 170.55C-7.17485 171.125 -6.47829 171.73 -5.81154 172.33C-5.14479 172.929 -4.45314 173.564 -3.79131 174.194C-3.2887 174.675 -2.7861 175.156 -2.28841 175.666L5.96561 172.034L-1.96127 177.956L-2.02581 177.976ZM53.8552 400.903C37.5057 391.962 51.4071 366.686 66.2323 373.355C83.7074 381.226 75.0081 412.473 53.8552 400.903ZM226.772 225.649C229.221 217.845 235.513 214.226 244.216 216.976C252.919 219.727 255.972 226.294 253.522 234.099C251.073 241.904 244.776 245.552 236.073 242.802C227.37 240.051 224.318 233.484 226.767 225.679L226.772 225.649ZM160.082 203.117C169.208 203.303 174.007 208.749 173.823 216.927C173.64 225.106 168.637 230.376 159.517 230.16C150.391 229.974 145.622 224.533 145.781 216.32C145.965 208.142 150.962 202.901 160.087 203.087L160.082 203.117ZM124.403 249.062C125.525 240.947 131.125 236.326 140.138 237.566C149.181 238.81 153.31 244.789 152.188 252.904C151.065 261.019 145.466 265.641 136.423 264.396C127.38 263.152 123.28 257.178 124.403 249.062ZM157.831 298.765C153.612 305.788 146.632 307.824 138.829 303.139C131.032 298.424 129.568 291.322 133.817 284.304C138.036 277.281 144.987 275.24 152.819 279.93C160.617 284.645 162.08 291.747 157.831 298.765ZM187.994 293.933C167.125 290.495 157.934 276.393 161.019 257.667C164.103 238.94 177.332 228.531 198.201 231.969C219.071 235.407 228.262 249.509 225.177 268.235C222.093 286.961 208.864 297.37 187.994 293.933ZM232.205 318.52C223.307 320.485 217.354 316.288 215.61 308.283C213.867 300.277 217.501 294.015 226.429 292.055C235.322 290.121 241.251 294.283 243.024 302.293C244.768 310.298 241.133 316.56 232.205 318.52ZM246.912 282.596C237.947 280.875 234.155 274.706 235.695 266.66C237.235 258.613 243.059 254.305 251.998 255.992C260.963 257.713 264.754 263.882 263.215 271.928C261.675 279.975 255.876 284.318 246.912 282.596ZM283.542 432.582C263.768 436.063 265.243 409.077 281.141 407.561C294.615 406.259 298.837 429.894 283.542 432.582ZM421.835 259.129L409.162 245.341C408.507 245.601 407.886 245.836 407.231 246.095C406.387 246.385 405.508 246.7 404.64 246.955C403.766 247.24 402.897 247.495 402.028 247.75C401.13 248 400.266 248.225 399.372 248.445L398.513 248.641L398.169 248.125L392.561 239.973L399.218 246.031C399.854 245.707 400.484 245.413 401.114 245.118C401.943 244.734 402.767 244.38 403.621 244.03C404.445 243.676 405.298 243.327 406.147 243.007C406.569 242.862 406.961 242.712 407.383 242.567L403.509 226.86L408.393 237.741L416.62 233.155L416.77 233.363L409.54 240.258L410.812 243.132L411.371 244.388L414.394 248.531C415.223 248.33 416.032 248.066 416.831 247.677C417.759 247.247 418.642 246.719 419.481 246.092C420.319 245.464 421.078 244.762 421.816 243.995C422.525 243.224 423.214 242.388 423.764 241.468L423.993 241.567C423.577 242.601 423.052 243.556 422.468 244.501C421.884 245.446 421.19 246.312 420.411 247.133C419.633 247.954 418.775 248.701 417.838 249.374C417.212 249.822 416.567 250.206 415.873 250.52L422.123 259.054L421.944 259.208L421.835 259.129Z" fill="white"/>
</g>
</g>
<defs>
<clipPath id="clip0_1_2">
<rect width="400" height="400" fill="white"/>
</clipPath>
<clipPath id="clip1_1_2">
<rect width="482.176" height="462.83" fill="white" transform="translate(0 -68) rotate(9.35402)"/>
</clipPath>
</defs>
</svg>
