<svg width="192" height="192" viewBox="0 0 192 192" fill="none" xmlns="http://www.w3.org/2000/svg">
<g clip-path="url(#clip0_9_25)">
<path d="M0 12C0 5.37258 5.37258 0 12 0H180C186.627 0 192 5.37258 192 12V180C192 186.627 186.627 192 180 192H12C5.37258 192 0 186.627 0 180V12Z" fill="#FF5858"/>
<circle cx="66.5" cy="90.5" r="39.5" fill="#D9D9D9"/>
<path d="M146.344 34.344L137.656 43.032L128.968 34.344C128.226 33.6004 127.344 33.0105 126.374 32.608C125.403 32.2056 124.363 31.9984 123.312 31.9984C122.261 31.9984 121.221 32.2056 120.25 32.608C119.28 33.0105 118.398 33.6004 117.656 34.344L107.664 44.336C100.097 41.4826 92.0789 40.0138 83.992 40C46.504 40 16 70.504 16 108C16 145.496 46.504 176 83.992 176C121.48 176 151.992 145.496 151.992 108C151.987 100.784 150.823 93.6149 148.544 86.768L159.312 76C160.056 75.2577 160.645 74.3761 161.048 73.4055C161.45 72.435 161.658 71.3947 161.658 70.344C161.658 69.2933 161.45 68.253 161.048 67.2825C160.645 66.3119 160.056 65.4303 159.312 64.688L148.968 54.344L157.688 45.624C159.52 43.792 164.448 40 168 40H176V24H168C156.8 24 147.328 33.336 146.344 34.344ZM83.992 80C76.512 80 69.488 82.912 64.192 88.2C61.5864 90.7956 59.5208 93.8818 58.1148 97.2803C56.7087 100.679 55.9899 104.322 56 108H40C40 96.256 44.568 85.208 52.872 76.896C56.9484 72.795 61.798 69.5435 67.1398 67.3298C72.4817 65.1162 78.2097 63.9844 83.992 64V80Z" fill="black"/>
</g>
<defs>
<clipPath id="clip0_9_25">
<rect width="192" height="192" fill="white"/>
</clipPath>
</defs>
</svg>
